<?xml version="1.0" encoding="UTF-8"?><svg id="Layer_1" xmlns="http://www.w3.org/2000/svg" viewBox="0 0 792 612"><g><path d="m284.21,334.79v7.47c0,.91.74,1.65,1.65,1.65h28.74c.91,0,1.65.74,1.65,1.65v4.1c0,.91.74,1.65,1.65,1.65h8.38c.91,0,1.65-.74,1.65-1.65v-42.11c0-.91-.74-1.65-1.65-1.65h-9.41c-.4,0-.79.15-1.09.41l-31.01,27.25c-.36.31-.56.76-.56,1.24Zm30.91-.75h-15.23c-1.06,0-1.54-1.32-.73-2l15.23-12.9c.74-.62,1.87-.1,1.87.87v12.9c0,.63-.51,1.13-1.13,1.13Z"/><path d="m388.93,322.56c0-10.12-7.07-16.67-17.38-16.67h-16.3c-.91,0-1.65.74-1.65,1.65v6.5c0,.91.74,1.65,1.65,1.65h13.06c3.5,0,8.95,0,8.95,6.87s-5.45,6.81-8.95,6.81h-13.06c-.91,0-1.65.74-1.65,1.65v6.5c0,.91.74,1.65,1.65,1.65h10.19c.58,0,1.11.3,1.41.8l6.37,10.54c.3.49.83.8,1.41.8h9.86c1.29,0,2.08-1.42,1.4-2.52l-5.82-9.39c-.51-.82-.2-1.88.66-2.33,5.12-2.68,8.22-7.79,8.22-14.49Z"/><path d="m347.55,329.37v-21.83c0-.91-.74-1.65-1.65-1.65h-8.38c-.91,0-1.65.74-1.65,1.65v42.11c0,.91.74,1.65,1.65,1.65h8.38c.91,0,1.65-.74,1.65-1.65v-20.28Z"/><path d="m392.98,315.69h16.76c.91,0,1.65.74,1.65,1.65v32.31c0,.91.74,1.65,1.65,1.65h8.38c.91,0,1.65-.74,1.65-1.65v-32.31c0-.91.74-1.65,1.65-1.65h16.76c.91,0,1.65-.74,1.65-1.65v-6.5c0-.91-.74-1.65-1.65-1.65h-48.48c-.91,0-1.65.74-1.65,1.65v6.5c0,.91.74,1.65,1.65,1.65Z"/><path d="m458.62,322.02v-14.47c0-.91-.74-1.65-1.65-1.65h-8.38c-.91,0-1.65.74-1.65,1.65v42.11c0,.91.74,1.65,1.65,1.65h8.38c.91,0,1.65-.74,1.65-1.65v-14.48c0-.91.74-1.65,1.65-1.65h12.17c.91,0,1.65-.74,1.65-1.65v-6.56c0-.91-.74-1.65-1.65-1.65h-12.17c-.91,0-1.65-.74-1.65-1.65Z"/><path d="m495.59,307.54v14.47c0,.91-.74,1.65-1.65,1.65h-12.17c-.91,0-1.65.74-1.65,1.65v6.56c0,.91.74,1.65,1.65,1.65h12.17c.91,0,1.65.74,1.65,1.65v14.48c0,.91.74,1.65,1.65,1.65h8.38c.91,0,1.65-.74,1.65-1.65v-42.11c0-.91-.74-1.65-1.65-1.65h-8.38c-.91,0-1.65.74-1.65,1.65Z"/></g><path d="m371.69,237.38h-7.47c-.97,0-1.76-.79-1.76-1.76v-14.12c0-11.69,9.47-21.16,21.16-21.16h7.89c.91,0,1.65.74,1.65,1.65v7.69c0,.91-.74,1.65-1.65,1.65h-7.89c-5.61,0-10.16,4.55-10.16,10.16v14.12c0,.97-.79,1.76-1.76,1.76Z"/><path d="m391.47,283.12h-7.86c-11.69,0-21.16-9.47-21.16-21.16v-14.23c0-.91.74-1.65,1.65-1.65h7.69c.91,0,1.65.74,1.65,1.65v14.23c0,5.61,4.55,10.16,10.16,10.16h7.86c.93,0,1.68.75,1.68,1.68v7.63c0,.93-.75,1.68-1.68,1.68Z"/><circle cx="416.64" cy="219.33" r="18.09"/><path d="m411.4,283.12h-7.75c-.99,0-1.79-.8-1.79-1.79v-7.41c0-.99.8-1.79,1.79-1.79h7.75c5.61,0,10.16-4.55,10.16-10.16v-14.23c0-.91.74-1.65,1.65-1.65h7.71c.91,0,1.65.74,1.65,1.65v14.23c0,11.69-9.47,21.16-21.16,21.16Z"/></svg>