<?xml version="1.0" standalone="no"?>
<!DOCTYPE svg PUBLIC "-//W3C//DTD SVG 20010904//EN"
 "http://www.w3.org/TR/2001/REC-SVG-20010904/DTD/svg10.dtd">
<svg version="1.0" xmlns="http://www.w3.org/2000/svg"
 width="557.000000pt" height="557.000000pt" viewBox="0 0 557.000000 557.000000"
 preserveAspectRatio="xMidYMid meet">
<metadata>
Created by potrace 1.16, written by Peter Selinger 2001-2019
</metadata>
<g transform="translate(0.000000,557.000000) scale(0.100000,-0.100000)"
fill="#000000" stroke="none">
<path d="M2537 5540 c-681 -66 -1277 -351 -1747 -836 -164 -170 -303 -353
-414 -546 l-27 -48 64 0 64 0 53 89 c241 403 636 764 1074 980 413 204 851
294 1316 270 856 -44 1641 -510 2095 -1245 l59 -94 64 0 64 0 -23 38 c-152
250 -253 384 -418 555 -433 447 -973 725 -1587 817 -157 24 -492 34 -637 20z"/>
<path d="M432 3769 c-130 -19 -249 -87 -318 -181 -54 -74 -68 -116 -68 -205 1
-92 33 -160 109 -232 66 -63 143 -100 369 -181 191 -68 249 -98 277 -143 46
-76 0 -181 -102 -232 -138 -70 -368 -40 -443 58 -29 38 -56 107 -56 144 0 14
-13 38 -30 55 -27 26 -36 30 -67 25 -21 -4 -48 -18 -62 -32 -22 -22 -26 -34
-25 -83 1 -79 17 -130 65 -201 45 -67 123 -126 217 -162 79 -30 251 -38 342
-15 158 40 274 126 333 245 28 58 32 75 32 146 -1 179 -98 273 -390 375 -297
104 -399 178 -380 278 11 61 41 99 103 129 52 26 66 28 172 28 110 0 118 -1
183 -33 80 -40 113 -80 127 -153 17 -93 93 -130 157 -75 25 22 28 30 28 88 -2
229 -278 401 -573 357z"/>
<path d="M1323 3746 c-17 -8 -37 -24 -43 -36 -8 -15 -9 -179 -1 -637 9 -580
11 -618 29 -642 30 -41 66 -55 108 -41 64 21 67 34 63 272 l-4 212 99 83 98
82 42 -52 c23 -29 130 -164 238 -302 108 -137 208 -261 222 -274 39 -37 90
-34 127 7 30 34 36 69 18 103 -5 11 -120 160 -255 331 l-244 311 219 222 c231
235 242 250 216 312 -16 38 -41 53 -89 53 -34 0 -52 -15 -264 -229 -203 -204
-405 -391 -423 -391 -3 0 -10 128 -15 285 l-9 285 -25 24 c-32 32 -67 39 -107
22z"/>
<path d="M2470 3753 c-50 -18 -76 -70 -60 -119 14 -42 44 -64 87 -64 l33 0 -2
-497 -3 -498 -37 -3 c-69 -6 -112 -93 -73 -148 28 -41 64 -47 231 -39 176 8
200 18 210 86 8 51 -33 98 -93 106 l-43 6 0 487 0 487 40 12 c48 14 70 43 70
92 0 50 -36 84 -96 93 -56 7 -243 7 -264 -1z"/>
<path d="M3170 3744 c-21 -9 -37 -27 -50 -56 -18 -40 -19 -66 -19 -378 1 -184
4 -455 8 -602 6 -261 6 -267 29 -291 30 -31 68 -39 109 -22 57 24 56 16 49
534 l-7 476 21 -25 c63 -79 247 -345 375 -545 160 -250 260 -391 307 -430 44
-37 116 -35 160 4 l33 29 3 626 c2 442 -1 633 -9 647 -14 27 -72 51 -103 43
-13 -3 -35 -17 -48 -31 l-23 -25 -5 -496 -5 -497 -85 133 c-251 393 -482 721
-609 863 -45 52 -81 63 -131 43z"/>
<path d="M4735 3753 c-33 -1 -105 -8 -160 -14 -87 -10 -103 -15 -127 -40 -39
-39 -39 -90 2 -131 28 -27 34 -29 78 -24 26 4 186 9 356 12 l309 6 -19 -24
c-43 -54 -284 -328 -350 -398 -153 -162 -372 -427 -421 -510 -33 -56 -37 -93
-15 -143 20 -45 57 -78 102 -92 14 -5 241 -9 505 -9 527 -1 515 -3 535 59 9
28 8 41 -5 69 -29 60 -34 61 -502 61 -233 0 -423 2 -423 5 0 17 191 240 496
580 116 129 228 258 249 285 79 103 103 192 69 256 -28 55 -54 59 -351 57
-147 -1 -295 -3 -328 -5z"/>
<path d="M10 1915 l0 -65 530 0 530 0 0 65 0 65 -530 0 -530 0 0 -65z"/>
<path d="M4480 1915 l0 -65 528 2 527 3 3 63 3 62 -531 0 -530 0 0 -65z"/>
<path d="M380 1413 c107 -192 272 -406 444 -578 435 -432 961 -692 1591 -787
141 -21 609 -18 755 5 611 97 1145 367 1565 792 166 168 331 384 435 568 l32
57 -64 0 -64 0 -24 -42 c-37 -69 -168 -257 -234 -338 -384 -470 -935 -801
-1531 -919 -496 -98 -1015 -50 -1487 138 -523 208 -1000 613 -1278 1084 l-45
76 -63 1 -64 0 32 -57z"/>
</g>
</svg>
