<svg xmlns="http://www.w3.org/2000/svg" version="1.1" xmlns:xlink="http://www.w3.org/1999/xlink" xmlns:svgjs="http://svgjs.dev/svgjs" width="1000" height="249" viewBox="0 0 1000 249"><g transform="matrix(1,0,0,1,-0.6060373287435254,0.3238704995109032)"><svg viewBox="0 0 396 99" data-background-color="#ffffff" preserveAspectRatio="xMidYMid meet" height="249" width="1000" xmlns="http://www.w3.org/2000/svg" xmlns:xlink="http://www.w3.org/1999/xlink"><g id="tight-bounds" transform="matrix(1,0,0,1,0.2399908476498922,-0.1287677889621648)"><svg viewBox="0 0 395.52 99.25753557792433" height="99.25753557792433" width="395.52"><g><svg viewBox="0 0 395.52 99.25753557792433" height="99.25753557792433" width="395.52"><g><svg viewBox="0 0 395.52 99.25753557792433" height="99.25753557792433" width="395.52"><g id="textblocktransform"><svg viewBox="0 0 395.52 99.25753557792433" height="99.25753557792433" width="395.52" id="textblock"><g><svg viewBox="0 0 395.52 99.25753557792433" height="99.25753557792433" width="395.52"><g transform="matrix(1,0,0,1,0,0)"><svg width="395.52" viewBox="1.850000023841858 -35.45000076293945 144.0399932861328 36.150001525878906" height="99.25753557792433" data-palette-color="#755bb4"><path d="M13.45-5.95L13.45-5.95Q15.1-5.95 16.18-6.23 17.25-6.5 17.9-6.98 18.55-7.45 18.8-8.1 19.05-8.75 19.05-9.55L19.05-9.55Q19.05-11.25 17.45-12.38 15.85-13.5 11.95-14.8L11.95-14.8Q10.25-15.4 8.55-16.18 6.85-16.95 5.5-18.13 4.15-19.3 3.3-20.98 2.45-22.65 2.45-25.05L2.45-25.05Q2.45-27.45 3.35-29.38 4.25-31.3 5.9-32.65 7.55-34 9.9-34.73 12.25-35.45 15.2-35.45L15.2-35.45Q18.7-35.45 21.25-34.7 23.8-33.95 25.45-33.05L25.45-33.05 23.2-26.9Q21.75-27.65 19.98-28.23 18.2-28.8 15.7-28.8L15.7-28.8Q12.9-28.8 11.68-28.03 10.45-27.25 10.45-25.65L10.45-25.65Q10.45-24.7 10.9-24.05 11.35-23.4 12.18-22.88 13-22.35 14.08-21.93 15.15-21.5 16.45-21.05L16.45-21.05Q19.15-20.05 21.15-19.07 23.15-18.1 24.48-16.8 25.8-15.5 26.45-13.75 27.1-12 27.1-9.5L27.1-9.5Q27.1-4.65 23.7-1.98 20.3 0.7 13.45 0.7L13.45 0.7Q11.15 0.7 9.3 0.43 7.45 0.15 6.03-0.25 4.6-0.65 3.58-1.1 2.55-1.55 1.85-1.95L1.85-1.95 4.05-8.15Q5.6-7.3 7.88-6.63 10.15-5.95 13.45-5.95ZM62.8 0L53.55 0Q52.5-1.7 51.07-3.68 49.65-5.65 47.97-7.63 46.3-9.6 44.5-11.43 42.7-13.25 40.9-14.65L40.9-14.65 40.9 0 33.1 0 33.1-34.65 40.9-34.65 40.9-21.55Q43.95-24.75 47.02-28.23 50.1-31.7 52.75-34.65L52.75-34.65 62-34.65Q58.45-30.45 54.87-26.55 51.3-22.65 47.35-18.7L47.35-18.7Q51.5-15.25 55.37-10.5 59.25-5.75 62.8 0L62.8 0ZM67.3 0L67.3-34.65 75.09-34.65 75.09 0 67.3 0ZM112.89 0L106.34 0Q102.99-5.95 99.09-11.75 95.19-17.55 90.79-22.7L90.79-22.7 90.79 0 83.09 0 83.09-34.65 89.44-34.65Q91.09-33 93.09-30.6 95.09-28.2 97.17-25.48 99.24-22.75 101.29-19.83 103.34-16.9 105.14-14.2L105.14-14.2 105.14-34.65 112.89-34.65 112.89 0ZM145.34-34.65L145.34-29.25Q143.74-27.6 141.54-24.98 139.34-22.35 136.99-19.25 134.64-16.15 132.34-12.85 130.04-9.55 128.24-6.55L128.24-6.55 145.89-6.55 145.89 0 118.64 0 118.64-4.65Q120.04-7.2 122.07-10.33 124.09-13.45 126.29-16.63 128.49-19.8 130.77-22.78 133.04-25.75 134.99-28.1L134.99-28.1 119.44-28.1 119.44-34.65 145.34-34.65Z" opacity="1" transform="matrix(1,0,0,1,0,0)" fill="#755bb4" class="wordmark-text-0" data-fill-palette-color="primary" id="text-0"></path></svg></g></svg></g></svg></g></svg></g></svg></g><defs></defs></svg><rect width="395.52" height="99.25753557792433" fill="none" stroke="none" visibility="hidden"></rect></g></svg></g></svg>